<svg xmlns="http://www.w3.org/2000/svg" xmlns:xlink="http://www.w3.org/1999/xlink" viewBox="0 0 100 100" fill="#0a0000">
  <defs>
    <style>
      .cls-1 {
        isolation: isolate;
      }

      .cls-2 {
        fill: url(#linear-gradient);
      }

      .cls-3, .cls-4, .cls-5 {
        fill: #fff;
      }

      .cls-3 {
        opacity: 0.4;
      }

      .cls-3, .cls-4 {
        mix-blend-mode: soft-light;
      }
    </style>
    <linearGradient id="linear-gradient" x1="50" y1="94.8" x2="50" y2="37.03" gradientTransform="translate(91.8 -7.03) rotate(81.24)" gradientUnits="userSpaceOnUse">
      <stop offset="0" stop-color="#f8c40f"/>
      <stop offset="1" stop-color="#f65066"/>
    </linearGradient>
  </defs>
  <title>2267950</title>
  <g class="cls-1">
    <g id="OBJECTS">
      <g>
        <circle class="cls-2" cx="50" cy="50" r="45" transform="translate(-7.03 91.8) rotate(-81.24)"/>
        <path class="cls-3" d="M80.38,16.8A45,45,0,0,1,16.8,80.38,45,45,0,1,0,80.38,16.8Z"/>
        <path class="cls-4" d="M51.91,15.66c5.75,6.89-3.84,11.63-13.56,19.73S22.48,51.91,16.73,45,14.2,26,23.92,17.87,46.17,8.78,51.91,15.66Z"/>
        <path d="M37.13,74.35a34.47,34.47,0,0,1,25.78.5c3.27,1.34,4.69-4,1.46-5.3a39.08,39.08,0,0,0-28.7-.49c-3.29,1.21-1.87,6.52,1.46,5.29Z"/>
        <g>
          <path d="M60.89,37.22A3.05,3.05,0,0,1,58.17,39a1.37,1.37,0,0,0,0,2.74,5.76,5.76,0,0,0,5.09-3.11c.79-1.57-1.58-3-2.38-1.38Z"/>
          <circle cx="61.64" cy="44.13" r="4.4"/>
          <circle class="cls-5" cx="60.44" cy="45.93" r="1.5"/>
        </g>
        <g>
          <path d="M39.11,37.22A3.05,3.05,0,0,0,41.83,39a1.37,1.37,0,0,1,0,2.74,5.76,5.76,0,0,1-5.09-3.11c-.79-1.57,1.58-3,2.38-1.38Z"/>
          <circle cx="38.36" cy="44.13" r="4.4"/>
          <circle class="cls-5" cx="39.56" cy="45.93" r="1.5"/>
        </g>
      </g>
    </g>
  </g>
</svg>