<svg xmlns="http://www.w3.org/2000/svg" viewBox="0 0 100 100" fill="#DB1C6B">
  <defs>
    <style>
      .cls-1 {
        isolation: isolate;
      }

      .cls-2 {
        fill: #558cff;
      }

      .cls-3, .cls-4, .cls-5 {
        fill: #fff;
      }

      .cls-3 {
        opacity: 0.4;
      }

      .cls-3, .cls-4 {
        mix-blend-mode: soft-light;
      }
    </style>
  </defs>
  <title>2267950</title>
  <g class="cls-1">
    <g id="OBJECTS">
      <g>
        <circle class="cls-2" cx="50" cy="50" r="45"/>
        <path class="cls-3" d="M80.38,16.8A45,45,0,0,1,16.8,80.38,45,45,0,1,0,80.38,16.8Z"/>
        <path class="cls-4" d="M52,15.46c5.75,6.89-3.84,11.63-13.56,19.73S22.58,51.71,16.83,44.82,14.3,25.78,24,17.67,46.27,8.58,52,15.46Z"/>
        <g>
          <rect class="cls-5" x="20.68" y="44.36" width="16.55" height="25.27" rx="3.81" ry="3.81"/>
          <path class="cls-5" d="M77.73,46.49a17.31,17.31,0,0,1,1-1.82,5.08,5.08,0,0,0,.55-2.25A4.34,4.34,0,0,0,77.45,39l-16.22-2,.24-2a39.16,39.16,0,0,0-1.24-15.68,2.82,2.82,0,0,0-2.24-2A2.73,2.73,0,0,0,54.9,19.5c-2.7,17.69-11.84,24.33-14.56,26a1.57,1.57,0,0,0-.77,1.36v21a1.6,1.6,0,0,0,1.6,1.6H73.86a5.5,5.5,0,0,0,1.62-6.92l.7-.83a6,6,0,0,0,.85-6.4l-.42-.91.68-.81A6,6,0,0,0,77.73,46.49Z"/>
        </g>
      </g>
    </g>
  </g>
</svg>