<svg xmlns="http://www.w3.org/2000/svg" viewBox="0 0 100 100" fill="#ff4c4c">
  <defs>
    <style>
      .cls-1 {
        isolation: isolate;
      }

      .cls-2 {
        fill: #f65066;
      }

      .cls-3, .cls-4, .cls-5 {
        fill: #fff;
      }

      .cls-3 {
        opacity: 0.4;
      }

      .cls-3, .cls-4 {
        mix-blend-mode: soft-light;
      }
    </style>
  </defs>
  <title>2267950</title>
  <g class="cls-1">
    <g id="OBJECTS">
      <g>
        <circle class="cls-2" cx="50" cy="50" r="45"/>
        <path class="cls-3" d="M80.38,16.8A45,45,0,0,1,16.8,80.38,45,45,0,1,0,80.38,16.8Z"/>
        <path class="cls-4" d="M52,15.46c5.75,6.89-3.84,11.63-13.56,19.73S22.58,51.71,16.83,44.82,14.3,25.78,24,17.67,46.27,8.58,52,15.46Z"/>
        <path class="cls-5" d="M75.72,41.12A12.53,12.53,0,0,0,74,33.73,13.21,13.21,0,0,0,62.72,27,13.4,13.4,0,0,0,50,37.15,13.38,13.38,0,0,0,37.33,27a13.1,13.1,0,0,0-10.58,5.62,13,13,0,0,0-.94,13.85c3.33,6.6,9,12.45,14.12,17.69,2.12,2.16,4.3,4.29,6.6,6.26.76.65,2.38,2.5,3.49,2.5s2.44-1.64,3.11-2.21c2.22-1.9,4.33-3.93,6.38-6A100,100,0,0,0,73,48.7,16.47,16.47,0,0,0,75.72,41.12Z"/>
      </g>
    </g>
  </g>
</svg>