<svg xmlns="http://www.w3.org/2000/svg" viewBox="0 0 100 100" fill="#0a0101">
  <defs>
    <style>
      .cls-1 {
        isolation: isolate;
      }

      .cls-2 {
        fill: #f8c40f;
      }

      .cls-3, .cls-4 {
        fill: #fff;
        mix-blend-mode: soft-light;
      }

      .cls-3 {
        opacity: 0.4;
      }
    </style>
  </defs>
  <title>2267950</title>
  <g class="cls-1">
    <g id="OBJECTS">
      <g>
        <circle class="cls-2" cx="50" cy="50" r="45" transform="translate(-19.72 38.23) rotate(-35.42)"/>
        <path class="cls-3" d="M80.38,16.8A45,45,0,0,1,16.8,80.38,45,45,0,1,0,80.38,16.8Z"/>
        <path d="M59.46,35.2a3,3,0,0,1,3.2-.47,1.38,1.38,0,0,0,1.13-2.51,5.77,5.77,0,0,0-5.92.75c-1.37,1.1.21,3.34,1.59,2.23Z"/>
        <path d="M44.91,33.27a5.77,5.77,0,0,0-5.77-1.52,1.38,1.38,0,0,0,.79,2.64,3,3,0,0,1,3.11.88c1.22,1.28,3.09-.73,1.87-2Z"/>
        <path class="cls-4" d="M52,15.46c5.75,6.89-3.84,11.63-13.56,19.73S22.58,51.71,16.83,44.82,14.3,25.78,24,17.67,46.27,8.58,52,15.46Z"/>
        <path d="M72.66,65.32c-14.6-9.62-33.61-5.89-43.13,8.87-.91,1.4,1.18,3,2.09,1.55A28,28,0,0,1,71.1,67.41c1.4.91,3-1.17,1.56-2.09Z"/>
        <path d="M70.89,44.74a5.38,5.38,0,0,1-9.45-1.56c-.56-1.65-3.24-1-2.67.64a8.15,8.15,0,0,0,14.44,2.39c1.08-1.4-1.25-2.86-2.32-1.47Z"/>
        <path d="M32,44.74a5.38,5.38,0,0,0,9.45-1.56c.56-1.65,3.24-1,2.67.64a8.15,8.15,0,0,1-14.44,2.39c-1.08-1.4,1.25-2.86,2.32-1.47Z"/>
      </g>
    </g>
  </g>
</svg>