<svg xmlns="http://www.w3.org/2000/svg" viewBox="0 0 100 100" fill="#0a0000">
  <defs>
    <style>
      .cls-1 {
        isolation: isolate;
      }

      .cls-2 {
        fill: #f8c40f;
      }

      .cls-3, .cls-4, .cls-5 {
        fill: #fff;
      }

      .cls-3 {
        opacity: 0.4;
      }

      .cls-3, .cls-5 {
        mix-blend-mode: soft-light;
      }
    </style>
  </defs>
  <title>2267950</title>
  <g class="cls-1">
    <g id="OBJECTS">
      <g>
        <circle class="cls-2" cx="50" cy="50" r="45" transform="translate(-19.93 39.52) rotate(-36.47)"/>
        <path class="cls-3" d="M80.38,16.8A45,45,0,0,1,16.8,80.38,45,45,0,1,0,80.38,16.8Z"/>
        <g>
          <path class="cls-4" d="M73.2,41.58a8,8,0,1,1-8-7.94A8,8,0,0,1,73.2,41.58Z"/>
          <path d="M69.16,40a4,4,0,1,1-4-3.93A4,4,0,0,1,69.16,40Z"/>
          <path class="cls-4" d="M65.67,38.79A1.63,1.63,0,1,1,64,37.17,1.62,1.62,0,0,1,65.67,38.79Z"/>
        </g>
        <g>
          <path class="cls-4" d="M42.67,41.78a8,8,0,1,1-8-7.94A8,8,0,0,1,42.67,41.78Z"/>
          <path d="M38.63,40.2a4,4,0,1,1-4-3.93A4,4,0,0,1,38.63,40.2Z"/>
          <path class="cls-4" d="M35.37,39a1.63,1.63,0,1,1-1.64-1.62A1.64,1.64,0,0,1,35.37,39Z"/>
        </g>
        <path d="M69,25.38a3.05,3.05,0,0,1,2.89,1.46,1.37,1.37,0,0,0,2.36-1.4A5.76,5.76,0,0,0,69,22.64c-1.76.11-1.75,2.86,0,2.74Z"/>
        <path d="M30.64,22.88a5.8,5.8,0,0,0-5.24,2.87,1.37,1.37,0,0,0,2.38,1.37,3,3,0,0,1,2.87-1.49c1.77.09,1.74-2.66,0-2.75Z"/>
        <ellipse cx="50" cy="68.59" rx="12.59" ry="10.16" transform="translate(-29.42 98.54) rotate(-74.57)"/>
        <path class="cls-5" d="M52,15.46c5.75,6.89-3.84,11.63-13.56,19.73S22.58,51.71,16.83,44.82,14.3,25.78,24,17.67,46.27,8.58,52,15.46Z"/>
      </g>
    </g>
  </g>
</svg>